<?xml version="1.0" encoding="utf-8"?>
<!-- Generator: Adobe Illustrator 25.2.3, SVG Export Plug-In . SVG Version: 6.00 Build 0) -->
<svg version="1.1" id="Layer_1" xmlns="http://www.w3.org/2000/svg" xmlns:xlink="http://www.w3.org/1999/xlink" x="0px" y="0px" viewBox="0 0 470 225" style="enable-background:new 0 0 470 225;" xml:space="preserve">
	<style type="text/css">
		.st0{fill:#FD47CC;stroke:#000000;stroke-width:4;stroke-miterlimit:10;}
		.st1{fill:#FB6861;stroke:#000000;stroke-width:4;stroke-miterlimit:10;}
		.st2{fill:none;stroke:#000000;stroke-width:4;stroke-miterlimit:10;}
		.st3{fill:#FFED36;stroke:#000000;stroke-width:4;stroke-miterlimit:10;}
		.st4{fill:#13C285;stroke:#000000;stroke-width:4;stroke-miterlimit:10;}
	</style>
	<g>
		<g>
			<path class="st0" d="M41.4,56.5c10.7-0.9,20.2,1.4,28.7,6.9c1.6,1,3.4,2.8,5.7,5.4l1,0.6l1.3,2.4l1,1.1
			c13.8,25.8,15.8,53.9,6,84.3l-2,4.3l-1.7,3.2l-1.3,1.7l-2,2.6l-2.3,2.8c-4.2,3.7-9.9,6.8-17,9.2c-3.8,0.7-11.2,0.9-22.3,0.6
			c-2,0-4.7-0.4-8-1.1c-17.6-6.2-26.3-17.1-26.3-32.7v-15.1l1-7.1l1.7-7.1c0-1,0.3-2.3,1-3.9c0-1.3,0.3-2.9,1-4.9l2-4.5l3.7-9.2
			c0.7-2.9,1.4-4.9,2.3-6l2.3-5.2l1.7-2.4c0.2-6.2,2.9-12.4,8-18.7l4.7-3.4c1.6-0.7,2.4-1.2,2.7-1.5l2-0.6L41.4,56.5z M56.8,84.9
			c-3.3,1.1-6.6,2.7-9.7,4.5c-13.3,19.8-13.2,40.9,0.3,63.5l3.3,3l4.7,3.2c1.1-1,2.2-2.2,3.3-3.4c1.1-1.3,2.2-2.7,3.3-4.3l0.7-0.6
			l3-6.5v-1.1l1-2.2l1.3-2.4c0.2-1.1,0.4-2.2,0.7-3.2c0.2-1,0.6-1.9,1-2.6l0.3-2.2l0.7-4.7c0.2-0.3,0.3-1.4,0.3-3.2
			c0.7-1.3,1-2.4,1-3.4l0.3-4.5v-8l-0.3-1.3v-3.7c-0.7-0.1-1-0.9-1-2.4l-1-4.3l-3.7-6.5L65.6,88C64,86.4,61,85.3,56.8,84.9" />
		</g>
		<g>
			<path class="st1" d="M173.4,25.1c1.8-1.1,3.7-2,5.7-2.6h8c7.6,2,11.6,5.5,12,10.3c-1.8,7.6-8.8,14.1-21,19.4l5.3,4.9l1.3,4.1
			l0.3,1.3l0.3,1.9l0.3,1.3c-0.4,1.4-0.6,2.7-0.3,3.9l-0.3,1.5v10.1c0.2,0.6,0.3,1.6,0.3,3V90c0.2,0.6,0.4,1.2,0.5,1.7
			c0.1,0.6,0.1,1.2-0.2,1.9c2.7,0.4,5,1.1,7,2.2c0.9,0.4,2.3,1.3,4.3,2.6l1,0.4l1.3,1.3c0.4,0.3,1,0.6,1.7,1s1.2,0.8,1.7,1.4
			l3.3,2.8l0.3,0.6c0.9,0.7,1.9,1.6,3,2.6c9.1,8.2,13.6,17.3,13.3,27.3l-0.7,5.6l-0.3,0.4l-0.3,3l-0.3,0.6l6,4.9l0.3,1.9
			c0.7,2,1,3.7,1,4.9v6.2l-0.3,0.6v3.4c0.2,0.7,0.4,1.5,0.5,2.3s0.1,1.8-0.2,2.9v6c2.7,14.5-6,27.3-26,38.5
			c-24.7,10.3-42.2,6.1-52.7-12.7c-0.9-1.3-1.6-2.9-2-4.9c-0.2-0.6-0.4-1.1-0.5-1.5s-0.2-0.9-0.2-1.3l-1-2.4v-0.9
			c-0.2,0-0.4-1-0.7-3c-0.2-0.7-0.3-1.4-0.3-2.2v-1.7l-0.3-0.6v-12.3V172c0-0.9,0.1-1.9,0.3-3v-0.6c0.4-1.4,0.7-2.7,0.7-3.9l0.3-1.3
			l0.7-1.7c0.4-1,0.8-2.2,1-3.4l0.7-1.3V156c0.4-0.3,0.7-0.6,0.7-0.9l3-4.7l2.3-2.4l0.3-0.6c0.4-0.3,1-0.6,1.7-1.1
			c0.7-0.4,1.2-0.9,1.7-1.5l5.3-3.2c1.6-0.7,3.4-1.5,5.7-2.4l4.7-1.5c6-1.4,12.9-1.9,20.7-1.5c4.7,0.4,9.6,1.5,14.7,3.2l0.7,0.2
			l-0.7-1.3l-0.7-1.5l-0.3-1.3c-0.2-0.3-0.3-0.6-0.3-0.9c0-0.3-0.1-0.5-0.3-0.6l-0.3-2.6l-0.7-1.3c-0.2-0.4-0.3-1.1-0.3-2.2
			c-0.4-0.3-0.7-1.1-0.7-2.6l-0.7-1.1l-0.7-1.3l-0.3-1.1c-0.4-0.6-1.1-1.6-2-3L199,116c-1.6-1.3-4-2.7-7.3-4.1l-1.7-0.6l-1.7-0.6
			l-2.7-1.5l-1.7-0.6c-3.8,10.8-13.1,20.5-28,29.3c-15.3,8.3-30.2,8.7-44.7,1.1l-4.7-3.4c-0.9-0.6-1.7-1.4-2.3-2.4l-0.7-0.4
			c-0.4-0.3-0.8-0.6-1.2-1.1c-0.3-0.4-0.7-0.9-1.2-1.5l-4.7-7.5c-0.4-1-0.7-1.9-0.8-2.6c-0.1-0.7-0.3-1.4-0.5-1.9l-1-2.2l-0.3-1.7
			l-0.3-0.9l-1.7-8.4v-0.9l-0.3-1.1V78.6c0.4-1.4,0.7-2.7,0.7-3.9v-0.6l1.3-3.7c1.3-10.8,9.8-19.9,25.3-27.3l4.3-1.3l2.3-0.6
			l3.7-0.6l0.7-0.2l3.3-0.4c1.6-0.1,2.9-0.2,4-0.2h3l7.3,0.2c1.6,0.1,3.2,0.4,4.8,0.8c1.7,0.4,3.6,0.8,5.8,1.4l0.7,0.2l2.3-3.2
			l1-0.6l0.7-1.5l0.7-0.9l0.3-0.9l2.7-3l0.3-0.9l0.7-0.9c0.4-0.7,1.2-1.5,2.2-2.4C170.9,27.2,172.1,26.2,173.4,25.1 M145.8,63.3
			c-3.3-1.7-6.9-2.7-10.7-3l-2.7,0.6l-2.3,4.1l-0.3,1.5l-0.3,1.7v1.3l-0.3,0.4l-0.3,2.4l-0.7,14l0.7,0.9l0.7,5.4
			c0.2,0.6,0.4,1.1,0.7,1.6c0.2,0.5,0.6,1.1,1,1.8v0.6l2.3,3.2c0.9,1.3,2.9,2.4,6,3.2c4,0.1,8-0.6,12-2.2c1.3-0.7,2.8-1.9,4.3-3.7
			c4.4-10.2,2.3-20.6-6.3-31.2L145.8,63.3z M190.8,154.3c-2.4-1-5.2-1.4-8.3-1.1c-7.1,10.2-7.1,21.2,0,32.9c1.1,1,2.6,1.8,4.3,2.4
			c2.4,0.3,4.9,0.2,7.3-0.2c1.6-0.6,3.7-1.4,6.3-2.6c6.7-9.2,5.1-18.7-4.7-28.6C194.9,156.4,193.2,155.5,190.8,154.3" />
		</g>
		<g>
			<path class="st2" d="M173.4,25.1c1.8-1.1,3.7-2,5.7-2.6h8c7.6,2,11.6,5.5,12,10.3c-1.8,7.6-8.8,14.1-21,19.4l5.3,4.9l1.3,4.1
			l0.3,1.3l0.3,1.9l0.3,1.3c-0.4,1.4-0.6,2.7-0.3,3.9l-0.3,1.5v10.1c0.2,0.6,0.3,1.6,0.3,3V90c0.2,0.6,0.4,1.2,0.5,1.7
			c0.1,0.6,0.1,1.2-0.2,1.9c2.7,0.4,5,1.1,7,2.2c0.9,0.4,2.3,1.3,4.3,2.6l1,0.4l1.3,1.3c0.4,0.3,1,0.6,1.7,1s1.2,0.8,1.7,1.4
			l3.3,2.8l0.3,0.6c0.9,0.7,1.9,1.6,3,2.6c9.1,8.2,13.6,17.3,13.3,27.3l-0.7,5.6l-0.3,0.4l-0.3,3l-0.3,0.6l6,4.9l0.3,1.9
			c0.7,2,1,3.7,1,4.9v6.2l-0.3,0.6v3.4c0.2,0.7,0.4,1.5,0.5,2.3s0.1,1.8-0.2,2.9v6c2.7,14.5-6,27.3-26,38.5
			c-24.7,10.3-42.2,6.1-52.7-12.7c-0.9-1.3-1.6-2.9-2-4.9c-0.2-0.6-0.4-1.1-0.5-1.5s-0.2-0.9-0.2-1.3l-1-2.4v-0.9
			c-0.2,0-0.4-1-0.7-3c-0.2-0.7-0.3-1.4-0.3-2.2v-1.7l-0.3-0.6v-12.3V172c0-0.9,0.1-1.9,0.3-3v-0.6c0.4-1.4,0.7-2.7,0.7-3.9l0.3-1.3
			l0.7-1.7c0.4-1,0.8-2.2,1-3.4l0.7-1.3V156c0.4-0.3,0.7-0.6,0.7-0.9l3-4.7l2.3-2.4l0.3-0.6c0.4-0.3,1-0.6,1.7-1.1
			c0.7-0.4,1.2-0.9,1.7-1.5l5.3-3.2c1.6-0.7,3.4-1.5,5.7-2.4l4.7-1.5c6-1.4,12.9-1.9,20.7-1.5c4.7,0.4,9.6,1.5,14.7,3.2l0.7,0.2
			l-0.7-1.3l-0.7-1.5l-0.3-1.3c-0.2-0.3-0.3-0.6-0.3-0.9c0-0.3-0.1-0.5-0.3-0.6l-0.3-2.6l-0.7-1.3c-0.2-0.4-0.3-1.1-0.3-2.2
			c-0.4-0.3-0.7-1.1-0.7-2.6l-0.7-1.1l-0.7-1.3l-0.3-1.1c-0.4-0.6-1.1-1.6-2-3L199,116c-1.6-1.3-4-2.7-7.3-4.1l-1.7-0.6l-1.7-0.6
			l-2.7-1.5l-1.7-0.6c-3.8,10.8-13.1,20.5-28,29.3c-15.3,8.3-30.2,8.7-44.7,1.1l-4.7-3.4c-0.9-0.6-1.7-1.4-2.3-2.4l-0.7-0.4
			c-0.4-0.3-0.8-0.6-1.2-1.1c-0.3-0.4-0.7-0.9-1.2-1.5l-4.7-7.5c-0.4-1-0.7-1.9-0.8-2.6c-0.1-0.7-0.3-1.4-0.5-1.9l-1-2.2l-0.3-1.7
			l-0.3-0.9l-1.7-8.4v-0.9l-0.3-1.1V78.6c0.4-1.4,0.7-2.7,0.7-3.9v-0.6l1.3-3.7c1.3-10.8,9.8-19.9,25.3-27.3l4.3-1.3l2.3-0.6
			l3.7-0.6l0.7-0.2l3.3-0.4c1.6-0.1,2.9-0.2,4-0.2h3l7.3,0.2c1.6,0.1,3.2,0.4,4.8,0.8c1.7,0.4,3.6,0.8,5.8,1.4l0.7,0.2l2.3-3.2
			l1-0.6l0.7-1.5l0.7-0.9l0.3-0.9l2.7-3l0.3-0.9l0.7-0.9c0.4-0.7,1.2-1.5,2.2-2.4C170.9,27.2,172.1,26.2,173.4,25.1z M145.8,63.3
			c-3.3-1.7-6.9-2.7-10.7-3l-2.7,0.6l-2.3,4.1l-0.3,1.5l-0.3,1.7v1.3l-0.3,0.4l-0.3,2.4l-0.7,14l0.7,0.9l0.7,5.4
			c0.2,0.6,0.4,1.1,0.7,1.6c0.2,0.5,0.6,1.1,1,1.8v0.6l2.3,3.2c0.9,1.3,2.9,2.4,6,3.2c4,0.1,8-0.6,12-2.2c1.3-0.7,2.8-1.9,4.3-3.7
			c4.4-10.2,2.3-20.6-6.3-31.2L145.8,63.3z M190.8,154.3c-2.4-1-5.2-1.4-8.3-1.1c-7.1,10.2-7.1,21.2,0,32.9c1.1,1,2.6,1.8,4.3,2.4
			c2.4,0.3,4.9,0.2,7.3-0.2c1.6-0.6,3.7-1.4,6.3-2.6c6.7-9.2,5.1-18.7-4.7-28.6C194.9,156.4,193.2,155.5,190.8,154.3z" />
		</g>
		<g>
			<path class="st3" d="M279.5,54.3c6.4-3.7,13.7-6.3,21.7-7.7c31.8-1.7,46.6,12.5,44.3,42.6c-6.4,22.4-24.1,32.2-53,29.5
			c-0.4-0.1-0.9-0.3-1.3-0.4s-0.9-0.4-1.3-0.6l-6.7-3.7l-1.3-0.9c-0.9-0.9-2.7-1.9-5.3-3l-0.3-0.4l-10-5.4l-3.7-1.1l-2.7,7.7v0.9
			l-0.7,2.2l-0.7,3l-0.3,1.9l-0.3,1.9c0.2,0.3,0.2,0.9,0,1.9l-0.3,1.5c-0.4,0.7-0.4,1.7,0,2.8v1.1v3v1.1l-0.3,2.4
			c0.2,0.4,0.3,1.4,0.3,2.8l1,7.1l0.7,1.5c0.2,0.7,0.6,1.8,1,3.2l3.7,6.9l0.7,1.1l4.7,4.1l2.7,1.3c2.7,1,6.1,1.4,10.3,1.1
			c2.4-0.1,5.9-1.1,10.3-2.8l1.7-0.6l4.7-3c1.1-0.7,2.1-1.4,3-2.2c0.9-0.7,1.6-1.4,2-1.9l1-0.4l4.3-3.4c1.3-0.9,2.2-1.4,2.7-1.5
			c3.3-1.4,7-1.8,11-1.1c7.6,4.4,7,12.3-1.7,23.7c-11.8,13.2-27.1,19.9-46,20c-19.1,0.4-31.8-9.3-38-29.3c-6.4-22.7-2-48,13.3-76.1
			c0.4-0.4,0.8-0.9,1.2-1.5c0.3-0.6,0.7-1.2,1.2-1.9l10.7-13.8c0.9-1,2.4-2.4,4.7-4.3l1.7-1.5l0.7-0.6c0.4-0.3,0.9-0.7,1.5-1.2
			s1.3-1.1,2.2-1.8l1-0.4C276.2,57,277.7,55.9,279.5,54.3 M313.1,83.1c-4.4-3-10.4-4.2-18-3.7c-1.1,0.1-2.4,0.3-4,0.3
			c-1.6,0.1-3.2,0.1-5,0.1l-1.3,0.2l-1,0.6c-0.7,4,0.9,7.8,4.7,11.4c2.7,4,7.3,6.1,14,6.2C311.4,95.4,314.9,90.3,313.1,83.1" />
		</g>
		<g>
			<path class="st4" d="M389.5,2.3h14l5,1.1l4.7,1.5l2.7,1.3c0.2,0.1,0.6,0.3,1,0.5s1,0.5,1.7,1l2.3,1.5c10.9,10.6,14.9,23.1,12,37.4
			l-1.3,3.2l-1,1.7c-2.7,2-6.2,2.4-10.7,1.3c-1.3-0.9-2.6-2.2-3.7-3.9l-0.7-0.4c-0.2-0.6-1.9-2.2-5-4.7l-1.3-1.1l-1.7-1.5l-1-0.6
			c-0.4-0.4-1.1-0.9-1.8-1.3c-0.8-0.4-1.6-0.9-2.5-1.3l-1-0.6l-4-1.3l-1-0.2c-1.6-0.1-3.7,0-6.3,0.4c-9.3,3-14,8.7-14,17.2l-1.7,3.9
			l-0.3,1.3c0,0.9-0.1,1.4-0.3,1.5v1.7c-1.8,14.1,3.7,27.8,16.3,41.3l1,0.6c16.4-11.6,35-15.2,55.7-10.8l4.3,5.6l1,1.3l0.3,0.6
			l1.7,2.2c0.2,0.3,0.5,0.6,0.8,1.1c0.3,0.4,0.7,1,1.2,1.7c0.4,0.7,1,1.4,1.7,2.2c0.7,0.7,1.2,1.6,1.7,2.6l0.7,1.3l-3.3,0.4
			l-9.7,1.3l-1.7,0.4l-2.3,0.4l-1.7,0.2l-1.3,0.2l-1.3,0.2l-5.3,0.9c-0.9,0.1-1.8,0.3-2.7,0.3c-0.9,0.1-1.9,0.3-3,0.5l-1.3,0.2
			l-8.7,1.3l-1.7,0.4l-1.3,0.2l-1.7,0.2c-0.2,0.1-0.7,0.2-1.3,0.2l0.3,0.6l4,2.6l0.3,0.4c0.4,0.3,1.2,0.7,2.2,1.3
			c1,0.6,2.1,1.4,3.2,2.4l1,0.9l1.7,1.3c0.7,0.4,1.3,1.1,2,1.9l1,0.6l3,3c0.4,0.3,0.9,0.6,1.3,1.1c0.4,0.4,0.9,0.9,1.3,1.5l0.7,0.6
			l1.3,1.3l2,1.7c0.2,0.3,0.4,0.6,0.7,0.9c0.2,0.3,0.4,0.6,0.7,0.9l1.7,1.7c0.7,0.7,1.3,1.6,2,2.6l5.3,6c0.2,0.7,0.8,1.4,1.7,1.9
			l0.3,0.6c0.4,0.4,1.2,1.4,2.3,2.8l0.7,0.6l1,1.5l0.7,0.6l0.7,1.5l0.7,0.6l3,4.1c0.2,0.1,0.6,0.7,1,1.7l1.3,1.5
			c6.7,8,9,17.1,7,27.1c-1.3,2.3-3.4,4.3-6.3,6c-10.9,4.9-18.8,3.4-23.7-4.3c-0.4-0.4-0.8-1.4-1-2.8l-0.3-1.3l-0.7-0.6
			c0-0.1-0.1-0.4-0.2-0.9c-0.1-0.4-0.3-1-0.5-1.7v-0.6c-0.4-0.4-0.8-1.4-1-2.8l-0.3-1.1l-0.3-0.9l-0.3-0.9l-0.7-3.2
			c-0.2-0.4-0.4-1-0.7-1.6c-0.2-0.6-0.4-1.4-0.7-2.3l-0.3-1.1l-0.3-1.1l-1.3-3.2c-0.2-0.6-0.4-1.1-0.5-1.7c-0.1-0.6-0.4-1.2-0.8-1.9
			l-0.3-1.3l-3-7.7c-0.2-1-0.9-2.2-2-3.4V156l-6-11.8l-0.7-1.5l-4.7-6.5l-0.3-0.6c-0.4-0.1-1.1-1-2-2.6c-4.2-4.7-8.7-7.5-13.3-8.2
			l-2.3-1.9c-0.9,0.1-3,0.6-6.3,1.3l-11,2.6l-3.7,1.1l-7.7,2.6c-2.2,0.7-4.6,1.9-7,3.4h-1c0.2-0.9,0.9-1.7,2-2.6l0.3-0.6
			c0.7-0.4,1.6-1.4,2.7-3l3-2.6l1.7-1.7l6-5.8l1.7-1.5l0.7-0.4c0.2-0.3,1.1-0.9,2.7-1.9c0.4-0.4,0.8-0.8,1-1.1
			c0.2-0.3,0.4-0.5,0.7-0.6l1.7-1.3l-7-7.5l-0.3-0.6l-6.7-8.2l-0.3-0.6c-0.2-0.3-0.4-0.6-0.7-0.9l-5-7.5l-0.7-0.6l-2.7-5.6l-0.3-0.9
			l-1-1.9l-1-1.9l-0.3-1.1l-0.3-0.9l-0.3-1.1l-0.3-0.6l-1.3-4.9l-0.3-1.5l-0.3-1.1l-0.3-1.3l-1-2.6c0-1-0.1-1.6-0.3-1.7l-0.3-17.6
			v-1.3c0-0.7,0.1-1.3,0.3-1.7v-1.1l1.3-3.4L352,31l0.7-2.4l1.3-2.4l0.7-1.5c0.4-0.6,0.9-1.2,1.3-1.8c0.4-0.6,0.9-1.3,1.3-2l0.7-0.6
			c0.2-0.6,0.6-1.1,1-1.5s0.9-0.9,1.3-1.5l3.7-3.4c0.9-0.6,2-1.5,3.3-2.8l3.3-2.2C375.8,5.5,382.4,3.4,389.5,2.3" />
		</g>
		<g>
			<path class="st2" d="M389.5,2.3h14l5,1.1l4.7,1.5l2.7,1.3c0.2,0.1,0.6,0.3,1,0.5s1,0.5,1.7,1l2.3,1.5c10.9,10.6,14.9,23.1,12,37.4
			l-1.3,3.2l-1,1.7c-2.7,2-6.2,2.4-10.7,1.3c-1.3-0.9-2.6-2.2-3.7-3.9l-0.7-0.4c-0.2-0.6-1.9-2.2-5-4.7l-1.3-1.1l-1.7-1.5l-1-0.6
			c-0.4-0.4-1.1-0.9-1.8-1.3c-0.8-0.4-1.6-0.9-2.5-1.3l-1-0.6l-4-1.3l-1-0.2c-1.6-0.1-3.7,0-6.3,0.4c-9.3,3-14,8.7-14,17.2l-1.7,3.9
			l-0.3,1.3c0,0.9-0.1,1.4-0.3,1.5v1.7c-1.8,14.1,3.7,27.8,16.3,41.3l1,0.6c16.4-11.6,35-15.2,55.7-10.8l4.3,5.6l1,1.3l0.3,0.6
			l1.7,2.2c0.2,0.3,0.5,0.6,0.8,1.1c0.3,0.4,0.7,1,1.2,1.7c0.4,0.7,1,1.4,1.7,2.2c0.7,0.7,1.2,1.6,1.7,2.6l0.7,1.3l-3.3,0.4
			l-9.7,1.3l-1.7,0.4l-2.3,0.4l-1.7,0.2l-1.3,0.2l-1.3,0.2l-5.3,0.9c-0.9,0.1-1.8,0.3-2.7,0.3c-0.9,0.1-1.9,0.3-3,0.5l-1.3,0.2
			l-8.7,1.3l-1.7,0.4l-1.3,0.2l-1.7,0.2c-0.2,0.1-0.7,0.2-1.3,0.2l0.3,0.6l4,2.6l0.3,0.4c0.4,0.3,1.2,0.7,2.2,1.3
			c1,0.6,2.1,1.4,3.2,2.4l1,0.9l1.7,1.3c0.7,0.4,1.3,1.1,2,1.9l1,0.6l3,3c0.4,0.3,0.9,0.6,1.3,1.1c0.4,0.4,0.9,0.9,1.3,1.5l0.7,0.6
			l1.3,1.3l2,1.7c0.2,0.3,0.4,0.6,0.7,0.9c0.2,0.3,0.4,0.6,0.7,0.9l1.7,1.7c0.7,0.7,1.3,1.6,2,2.6l5.3,6c0.2,0.7,0.8,1.4,1.7,1.9
			l0.3,0.6c0.4,0.4,1.2,1.4,2.3,2.8l0.7,0.6l1,1.5l0.7,0.6l0.7,1.5l0.7,0.6l3,4.1c0.2,0.1,0.6,0.7,1,1.7l1.3,1.5
			c6.7,8,9,17.1,7,27.1c-1.3,2.3-3.4,4.3-6.3,6c-10.9,4.9-18.8,3.4-23.7-4.3c-0.4-0.4-0.8-1.4-1-2.8l-0.3-1.3l-0.7-0.6
			c0-0.1-0.1-0.4-0.2-0.9c-0.1-0.4-0.3-1-0.5-1.7v-0.6c-0.4-0.4-0.8-1.4-1-2.8l-0.3-1.1l-0.3-0.9l-0.3-0.9l-0.7-3.2
			c-0.2-0.4-0.4-1-0.7-1.6c-0.2-0.6-0.4-1.4-0.7-2.3l-0.3-1.1l-0.3-1.1l-1.3-3.2c-0.2-0.6-0.4-1.1-0.5-1.7c-0.1-0.6-0.4-1.2-0.8-1.9
			l-0.3-1.3l-3-7.7c-0.2-1-0.9-2.2-2-3.4V156l-6-11.8l-0.7-1.5l-4.7-6.5l-0.3-0.6c-0.4-0.1-1.1-1-2-2.6c-4.2-4.7-8.7-7.5-13.3-8.2
			l-2.3-1.9c-0.9,0.1-3,0.6-6.3,1.3l-11,2.6l-3.7,1.1l-7.7,2.6c-2.2,0.7-4.6,1.9-7,3.4h-1c0.2-0.9,0.9-1.7,2-2.6l0.3-0.6
			c0.7-0.4,1.6-1.4,2.7-3l3-2.6l1.7-1.7l6-5.8l1.7-1.5l0.7-0.4c0.2-0.3,1.1-0.9,2.7-1.9c0.4-0.4,0.8-0.8,1-1.1
			c0.2-0.3,0.4-0.5,0.7-0.6l1.7-1.3l-7-7.5l-0.3-0.6l-6.7-8.2l-0.3-0.6c-0.2-0.3-0.4-0.6-0.7-0.9l-5-7.5l-0.7-0.6l-2.7-5.6l-0.3-0.9
			l-1-1.9l-1-1.9l-0.3-1.1l-0.3-0.9l-0.3-1.1l-0.3-0.6l-1.3-4.9l-0.3-1.5l-0.3-1.1l-0.3-1.3l-1-2.6c0-1-0.1-1.6-0.3-1.7l-0.3-17.6
			v-1.3c0-0.7,0.1-1.3,0.3-1.7v-1.1l1.3-3.4L352,31l0.7-2.4l1.3-2.4l0.7-1.5c0.4-0.6,0.9-1.2,1.3-1.8c0.4-0.6,0.9-1.3,1.3-2l0.7-0.6
			c0.2-0.6,0.6-1.1,1-1.5s0.9-0.9,1.3-1.5l3.7-3.4c0.9-0.6,2-1.5,3.3-2.8l3.3-2.2C375.8,5.5,382.4,3.4,389.5,2.3z" />
		</g>
	</g>
</svg>
